<?xml version="1.0" encoding="UTF-8" standalone="no"?>
<!DOCTYPE svg PUBLIC "-//W3C//DTD SVG 1.1//EN" "http://www.w3.org/Graphics/SVG/1.1/DTD/svg11.dtd">
<svg width="100%" height="100%" x="0" y="0" viewBox="0 0 19 28" version="1.1" xmlns="http://www.w3.org/2000/svg" xmlns:xlink="http://www.w3.org/1999/xlink" xml:space="preserve" xmlns:serif="http://www.serif.com/" style="fill-rule:evenodd;clip-rule:evenodd;stroke-linejoin:round;stroke-miterlimit:1.41421;">
        <path d="M14,0C17.007,0 19.299,1.262 20.877,3.787C22.454,6.312 23.243,9.713 23.243,13.991C23.243,18.281 22.454,21.688 20.877,24.213C19.299,26.738 17.007,28 14,28C11.004,28 8.715,26.738 7.132,24.213C5.549,21.688 4.757,18.281 4.757,13.991C4.757,9.713 5.549,6.312 7.132,3.787C8.715,1.262 11.004,0 14,0ZM18.416,11.528L11.724,22.043C11.883,22.195 12.049,22.326 12.221,22.439C12.721,22.764 13.278,22.927 13.893,22.927C15.587,22.927 16.791,21.98 17.504,20.085C18.217,18.19 18.574,16.089 18.574,13.779C18.574,13.014 18.521,12.263 18.416,11.528ZM16.335,6.052C16.115,5.818 15.887,5.636 15.652,5.508C15.121,5.218 14.571,5.073 14,5.073C12.511,5.073 11.379,5.9 10.603,7.554C9.827,9.208 9.44,11.305 9.44,13.846C9.44,14.426 9.457,15.05 9.493,15.719C9.507,15.977 9.538,16.271 9.586,16.601L16.335,6.052Z" style="fill-rule:nonzero;"/>
</svg>
